<svg xmlns="http://www.w3.org/2000/svg" viewBox="0 0 360 304.45"><title>casics-logo-in-steel-teal</title><path d="M349,0H11A11,11,0,0,0,0,11V277a11,11,0,0,0,11,11H89.44V267.19H21.94V43.31H344.25V88.88H360V11A11,11,0,0,0,349,0Z" style="fill:#97b2d9"/><rect x="323.13" y="16.19" width="11.25" height="11.81" style="fill:#fff"/><rect x="307.25" y="16.19" width="11.25" height="11.81" style="fill:#fff"/><rect x="291.38" y="16.19" width="11.25" height="11.81" style="fill:#fff"/><rect x="163.91" y="98.44" width="49.61" height="62.09" style="fill:#16577a"/><rect x="224.52" y="98.44" width="48.23" height="62.09" style="fill:#16577a"/><rect x="101.03" y="171.53" width="51.89" height="59.61" style="fill:#16577a"/><rect x="163.91" y="171.53" width="108.84" height="59.61" style="fill:#16577a"/><rect x="101.03" y="242.14" width="258.41" height="62.31" style="fill:#16577a"/><rect x="101.03" y="98.44" width="51.89" height="62.09" style="fill:#16577a"/><rect x="283.75" y="171.53" width="75.68" height="59.61" style="fill:#16577a"/><rect x="283.75" y="98.44" width="23.03" height="62.09" style="fill:#16577a"/></svg>