<svg xmlns="http://www.w3.org/2000/svg" viewBox="0 0 575 575"><title>spiral</title><path d="M340.85,470a297,297,0,0,1-38.24,46.65,228.34,228.34,0,0,0,57.6,17,297.15,297.15,0,0,0,24.88-55A172.09,172.09,0,0,1,340.85,470Z" transform="translate(-108.5 -18.87)" style="fill:#fff"/><path d="M551.32,231a171.58,171.58,0,0,1,14.15,42.79,296.51,296.51,0,0,1,59.38,10.32,229,229,0,0,0-13.5-58.51A296.69,296.69,0,0,0,551.32,231Z" transform="translate(-108.5 -18.87)" style="fill:#fff"/><path d="M510.06,436a297.24,297.24,0,0,1,21.25,56.45A231.24,231.24,0,0,0,574.82,451a297.11,297.11,0,0,0-35.11-49A173.19,173.19,0,0,1,510.06,436Z" transform="translate(-108.5 -18.87)" style="fill:#fff"/><path d="M472.65,461.12a297.15,297.15,0,0,1,5.92,60,229.27,229.27,0,0,0,52.73-28.74A297.24,297.24,0,0,0,510.06,436,172.63,172.63,0,0,1,472.65,461.12Z" transform="translate(-108.5 -18.87)"/><path d="M472.65,461.12A171.24,171.24,0,0,1,430,475.67a297.2,297.2,0,0,1-9.8,59.51,228.56,228.56,0,0,0,58.35-14A297.15,297.15,0,0,0,472.65,461.12Z" transform="translate(-108.5 -18.87)" style="fill:#fff"/><path d="M396,479c-3.67,0-7.3-.13-10.92-.35a297.15,297.15,0,0,1-24.88,55,232.45,232.45,0,0,0,60,1.51,297.2,297.2,0,0,0,9.8-59.51A173.74,173.74,0,0,1,396,479Z" transform="translate(-108.5 -18.87)"/><path d="M568.54,306.37c0,3.67-.13,7.31-.35,10.92a296.81,296.81,0,0,1,55,24.9,232.08,232.08,0,0,0,2.77-35.82q0-11.27-1.08-22.26a296.51,296.51,0,0,0-59.38-10.32A174.25,174.25,0,0,1,568.54,306.37Z" transform="translate(-108.5 -18.87)"/><path d="M559.56,361.56A171.78,171.78,0,0,1,539.71,402a297.11,297.11,0,0,1,35.11,49,230.06,230.06,0,0,0,31.35-51.21A297.07,297.07,0,0,0,559.56,361.56Z" transform="translate(-108.5 -18.87)"/><path d="M559.56,361.56a297.07,297.07,0,0,1,46.61,38.26,228.71,228.71,0,0,0,17-57.64,296.81,296.81,0,0,0-55-24.9A172.43,172.43,0,0,1,559.56,361.56Z" transform="translate(-108.5 -18.87)" style="fill:#fff"/><path d="M340.85,470a171.8,171.8,0,0,1-40.45-19.86,296.91,296.91,0,0,1-49,35.14,229.7,229.7,0,0,0,51.17,31.38A297,297,0,0,0,340.85,470Z" transform="translate(-108.5 -18.87)"/><path d="M232.44,251.18a296.87,296.87,0,0,1-46.61-38.26,228.66,228.66,0,0,0-17,57.63,296.61,296.61,0,0,0,55,24.89A172.35,172.35,0,0,1,232.44,251.18Z" transform="translate(-108.5 -18.87)" style="fill:#fff"/><path d="M232.44,251.18a171.83,171.83,0,0,1,19.85-40.48,297.08,297.08,0,0,1-35.11-49,230,230,0,0,0-31.35,51.21A296.87,296.87,0,0,0,232.44,251.18Z" transform="translate(-108.5 -18.87)"/><path d="M223.46,306.37c0-3.67.13-7.3.35-10.92a296.61,296.61,0,0,1-55-24.89,232.43,232.43,0,0,0-1.51,60.05,296.56,296.56,0,0,0,59.46,9.8A174.1,174.1,0,0,1,223.46,306.37Z" transform="translate(-108.5 -18.87)"/><path d="M241.35,383.08a171.49,171.49,0,0,1-14.54-42.67,296.56,296.56,0,0,1-59.46-9.8,228.88,228.88,0,0,0,14,58.39A296.59,296.59,0,0,0,241.35,383.08Z" transform="translate(-108.5 -18.87)" style="fill:#fff"/><path d="M281.93,176.76a297.22,297.22,0,0,1-21.25-56.44,231.11,231.11,0,0,0-43.51,41.39,297.08,297.08,0,0,0,35.11,49A173.24,173.24,0,0,1,281.93,176.76Z" transform="translate(-108.5 -18.87)" style="fill:#fff"/><path d="M241.35,383.08a296.59,296.59,0,0,1-60,5.93,229.55,229.55,0,0,0,28.72,52.76,296.63,296.63,0,0,0,56.4-21.26A172.64,172.64,0,0,1,241.35,383.08Z" transform="translate(-108.5 -18.87)"/><path d="M266.47,420.51a296.63,296.63,0,0,1-56.4,21.26,231.1,231.1,0,0,0,41.36,43.54,296.91,296.91,0,0,0,49-35.14A173.25,173.25,0,0,1,266.47,420.51Z" transform="translate(-108.5 -18.87)" style="fill:#fff"/><path d="M402.12,363.47a357.07,357.07,0,0,1-3.53,58.11A114.74,114.74,0,0,0,428.3,417a357,357,0,0,0-11.61-57A57.53,57.53,0,0,1,402.12,363.47Z" transform="translate(-108.5 -18.87)"/><path d="M402.12,363.47a58.67,58.67,0,0,1-15-.35,357.24,357.24,0,0,1-18.44,55.21A115.07,115.07,0,0,0,396,421.6c.86,0,1.73,0,2.59,0A357.07,357.07,0,0,0,402.12,363.47Z" transform="translate(-108.5 -18.87)" style="fill:#fff"/><path d="M372.74,358.93a356.85,356.85,0,0,1-32.05,48.49,114.11,114.11,0,0,0,28,10.91,357.24,357.24,0,0,0,18.44-55.21A57.42,57.42,0,0,1,372.74,358.93Z" transform="translate(-108.5 -18.87)"/><path d="M359.9,351.15a357,357,0,0,1-43.41,38.47,115.3,115.3,0,0,0,24.2,17.8,356.85,356.85,0,0,0,32.05-48.49A57.43,57.43,0,0,1,359.9,351.15Z" transform="translate(-108.5 -18.87)" style="fill:#fff"/><path d="M359.9,351.15a57.55,57.55,0,0,1-10.4-10.85,356.31,356.31,0,0,1-51.8,25.87,115.67,115.67,0,0,0,18.79,23.44A357,357,0,0,0,359.9,351.15Z" transform="translate(-108.5 -18.87)"/><path d="M338.75,312.5a58,58,0,0,1,.36-15,356.55,356.55,0,0,1-54.83-18.34A115.81,115.81,0,0,0,281,306.37c0,.88,0,1.75,0,2.62A356.45,356.45,0,0,0,338.75,312.5Z" transform="translate(-108.5 -18.87)" style="fill:#fff"/><path d="M343.36,283a356.87,356.87,0,0,1-48.26-31.94,114.54,114.54,0,0,0-10.82,28,356.55,356.55,0,0,0,54.83,18.34A57,57,0,0,1,343.36,283Z" transform="translate(-108.5 -18.87)"/><path d="M342.28,327.11a356.27,356.27,0,0,1-56.66,11.56,114.68,114.68,0,0,0,12.08,27.5,356.31,356.31,0,0,0,51.8-25.87A57.12,57.12,0,0,1,342.28,327.11Z" transform="translate(-108.5 -18.87)" style="fill:#fff"/><path d="M338.75,312.5a356.45,356.45,0,0,1-57.67-3.5,115.42,115.42,0,0,0,4.55,29.68,356.27,356.27,0,0,0,56.66-11.56A57,57,0,0,1,338.75,312.5Z" transform="translate(-108.5 -18.87)"/><path d="M449.9,286.09A356.2,356.2,0,0,1,506.66,275a114.73,114.73,0,0,0-11.85-27.6,356.6,356.6,0,0,0-52,25.42A57.09,57.09,0,0,1,449.9,286.09Z" transform="translate(-108.5 -18.87)" style="fill:#fff"/><path d="M453.25,300.24a356.31,356.31,0,0,1,57.68,3.5A115.65,115.65,0,0,0,506.66,275a356.2,356.2,0,0,0-56.76,11.07A57.08,57.08,0,0,1,453.25,300.24Z" transform="translate(-108.5 -18.87)"/><path d="M453.25,300.24a58,58,0,0,1-.36,15,356.57,356.57,0,0,1,54.83,18.34A115.85,115.85,0,0,0,511,306.37c0-.87,0-1.75,0-2.62A356.31,356.31,0,0,0,453.25,300.24Z" transform="translate(-108.5 -18.87)" style="fill:#fff"/><path d="M419.25,253.81a57.46,57.46,0,0,1,12.84,7.78,356.77,356.77,0,0,1,43.41-38.46,115.26,115.26,0,0,0-24.2-17.81A357,357,0,0,0,419.25,253.81Z" transform="translate(-108.5 -18.87)" style="fill:#fff"/><path d="M432.09,261.59a57.5,57.5,0,0,1,10.69,11.25,356.6,356.6,0,0,1,52-25.42,115.57,115.57,0,0,0-19.3-24.29A356.77,356.77,0,0,0,432.09,261.59Z" transform="translate(-108.5 -18.87)"/><path d="M416.69,360a357,357,0,0,1,11.61,57,114.37,114.37,0,0,0,27.5-12.17,356.88,356.88,0,0,0-25.92-52A57.3,57.3,0,0,1,416.69,360Z" transform="translate(-108.5 -18.87)" style="fill:#fff"/><path d="M440.78,342.52a357,357,0,0,1,38.4,43.41,115.5,115.5,0,0,0,17.72-24.28,356.47,356.47,0,0,0-48.26-31.94A57.23,57.23,0,0,1,440.78,342.52Z" transform="translate(-108.5 -18.87)" style="fill:#fff"/><path d="M440.78,342.52a57.46,57.46,0,0,1-10.91,10.32,356.88,356.88,0,0,1,25.92,52,115.47,115.47,0,0,0,23.39-18.89A357,357,0,0,0,440.78,342.52Z" transform="translate(-108.5 -18.87)"/><path d="M448.64,329.71a356.47,356.47,0,0,1,48.26,31.94,114.6,114.6,0,0,0,10.82-28,356.57,356.57,0,0,0-54.83-18.34A57.05,57.05,0,0,1,448.64,329.71Z" transform="translate(-108.5 -18.87)"/><path d="M525.52,192.23A296.63,296.63,0,0,1,581.92,171a231.1,231.1,0,0,0-41.36-43.54,296.79,296.79,0,0,0-49,35.13A173.18,173.18,0,0,1,525.52,192.23Z" transform="translate(-108.5 -18.87)" style="fill:#fff"/><path d="M451.15,142.7a296.78,296.78,0,0,1,38.24-46.65,228.15,228.15,0,0,0-57.6-17,297.17,297.17,0,0,0-24.88,55A172.05,172.05,0,0,1,451.15,142.7Z" transform="translate(-108.5 -18.87)" style="fill:#fff"/><path d="M319.34,151.62A171.36,171.36,0,0,1,362,137.07a297.18,297.18,0,0,1,9.8-59.51,228.5,228.5,0,0,0-58.35,14A297.36,297.36,0,0,0,319.34,151.62Z" transform="translate(-108.5 -18.87)" style="fill:#fff"/><path d="M319.34,151.62a297.36,297.36,0,0,1-5.92-60,229.11,229.11,0,0,0-52.73,28.74,297.22,297.22,0,0,0,21.25,56.44A172.65,172.65,0,0,1,319.34,151.62Z" transform="translate(-108.5 -18.87)"/><path d="M396,133.71c3.67,0,7.3.13,10.91.35a297.17,297.17,0,0,1,24.88-55,232.25,232.25,0,0,0-60-1.51,297.18,297.18,0,0,0-9.8,59.51A173.7,173.7,0,0,1,396,133.71Z" transform="translate(-108.5 -18.87)"/><path d="M351.21,270.22a356.81,356.81,0,0,1-38.4-43.41,115.53,115.53,0,0,0-17.72,24.28A356.87,356.87,0,0,0,343.36,283,57.18,57.18,0,0,1,351.21,270.22Z" transform="translate(-108.5 -18.87)" style="fill:#fff"/><path d="M451.15,142.7a171.75,171.75,0,0,1,40.45,19.86,296.79,296.79,0,0,1,49-35.13,229.7,229.7,0,0,0-51.18-31.38A296.78,296.78,0,0,0,451.15,142.7Z" transform="translate(-108.5 -18.87)"/><path d="M389.88,249.27a357.2,357.2,0,0,1,3.53-58.11,114.74,114.74,0,0,0-29.71,4.58,357,357,0,0,0,11.61,57A57.54,57.54,0,0,1,389.88,249.27Z" transform="translate(-108.5 -18.87)"/><path d="M375.31,252.76a357,357,0,0,1-11.61-57,114.22,114.22,0,0,0-27.5,12.17,356.84,356.84,0,0,0,25.92,52A57.34,57.34,0,0,1,375.31,252.76Z" transform="translate(-108.5 -18.87)" style="fill:#fff"/><path d="M351.21,270.22a57.53,57.53,0,0,1,10.91-10.32,356.84,356.84,0,0,1-25.92-52,115.47,115.47,0,0,0-23.39,18.89A356.81,356.81,0,0,0,351.21,270.22Z" transform="translate(-108.5 -18.87)"/><path d="M551.32,231a296.69,296.69,0,0,1,60-5.4A229.54,229.54,0,0,0,581.92,171a296.63,296.63,0,0,0-56.4,21.26A172.55,172.55,0,0,1,551.32,231Z" transform="translate(-108.5 -18.87)"/><path d="M389.88,249.27a58.52,58.52,0,0,1,15,.35,357.19,357.19,0,0,1,18.44-55.21,115,115,0,0,0-27.3-3.28c-.87,0-1.73,0-2.59,0A357.2,357.2,0,0,0,389.88,249.27Z" transform="translate(-108.5 -18.87)" style="fill:#fff"/><path d="M419.25,253.81a357,357,0,0,1,32.05-48.5,114,114,0,0,0-28-10.91,357.19,357.19,0,0,0-18.44,55.21A57.43,57.43,0,0,1,419.25,253.81Z" transform="translate(-108.5 -18.87)"/><path d="M108.51,307.47a288.27,288.27,0,0,0,10,74.4A291.93,291.93,0,0,0,181.36,389a228.88,228.88,0,0,1-14-58.39A292,292,0,0,1,108.51,307.47Z" transform="translate(-108.5 -18.87)"/><path d="M397.2,593.85a288.37,288.37,0,0,0,74.29-10,292.47,292.47,0,0,0,7.09-62.69,228.56,228.56,0,0,1-58.35,14A292.55,292.55,0,0,1,397.2,593.85Z" transform="translate(-108.5 -18.87)"/><path d="M402.12,363.47A57.53,57.53,0,0,0,416.69,360C407.06,326.76,396,306.37,396,306.37S401.41,328.91,402.12,363.47Z" transform="translate(-108.5 -18.87)" style="fill:#fff"/><path d="M429.88,352.84a57.46,57.46,0,0,0,10.91-10.32c-25-24-44.79-36.15-44.79-36.15S412,323.21,429.88,352.84Z" transform="translate(-108.5 -18.87)" style="fill:#fff"/><path d="M452.89,315.28a58,58,0,0,0,.36-15c-34.64.69-57.25,6.13-57.25,6.13S419.24,307,452.89,315.28Z" transform="translate(-108.5 -18.87)"/><path d="M416.69,360a57.3,57.3,0,0,0,13.19-7.14C412,323.21,396,306.37,396,306.37S407.06,326.76,416.69,360Z" transform="translate(-108.5 -18.87)"/><path d="M349.5,340.3a57.55,57.55,0,0,0,10.4,10.85c24-25,36.09-44.78,36.09-44.78S379.14,322.38,349.5,340.3Z" transform="translate(-108.5 -18.87)" style="fill:#fff"/><path d="M359.9,351.15a57.43,57.43,0,0,0,12.84,7.78C389.42,328.62,396,306.37,396,306.37S383.87,326.18,359.9,351.15Z" transform="translate(-108.5 -18.87)"/><path d="M372.74,358.93a57.42,57.42,0,0,0,14.4,4.19c8.26-33.57,8.86-56.75,8.86-56.75S389.42,328.62,372.74,358.93Z" transform="translate(-108.5 -18.87)" style="fill:#fff"/><path d="M387.14,363.12a58.67,58.67,0,0,0,15,.35c-.71-34.56-6.12-57.1-6.12-57.1S395.39,329.55,387.14,363.12Z" transform="translate(-108.5 -18.87)"/><path d="M396,306.37s6.58-22.25,23.26-52.56a57.43,57.43,0,0,0-14.4-4.19C396.6,283.19,396,306.37,396,306.37Z" transform="translate(-108.5 -18.87)" style="fill:#fff"/><path d="M449.9,286.09a57.09,57.09,0,0,0-7.12-13.25C413,290.51,396,306.37,396,306.37S416.53,295.44,449.9,286.09Z" transform="translate(-108.5 -18.87)"/><path d="M440.78,342.52a57.23,57.23,0,0,0,7.86-12.81C418.29,313,396,306.37,396,306.37S415.81,318.51,440.78,342.52Z" transform="translate(-108.5 -18.87)"/><path d="M442.78,272.84a57.5,57.5,0,0,0-10.69-11.25c-24,25-36.1,44.78-36.1,44.78S413,290.51,442.78,272.84Z" transform="translate(-108.5 -18.87)" style="fill:#fff"/><path d="M448.64,329.71a57.05,57.05,0,0,0,4.25-14.43C419.24,307,396,306.37,396,306.37S418.29,313,448.64,329.71Z" transform="translate(-108.5 -18.87)" style="fill:#fff"/><path d="M453.25,300.24a57.08,57.08,0,0,0-3.35-14.16c-33.37,9.35-53.9,20.28-53.9,20.28S418.61,300.93,453.25,300.24Z" transform="translate(-108.5 -18.87)" style="fill:#fff"/><path d="M375.31,252.76a57.34,57.34,0,0,0-13.19,7.14C380,289.53,396,306.37,396,306.37S384.93,286,375.31,252.76Z" transform="translate(-108.5 -18.87)"/><path d="M389.88,249.27a57.54,57.54,0,0,0-14.57,3.49C384.93,286,396,306.37,396,306.37S390.58,283.83,389.88,249.27Z" transform="translate(-108.5 -18.87)" style="fill:#fff"/><path d="M404.86,249.62a58.52,58.52,0,0,0-15-.35c.71,34.56,6.12,57.1,6.12,57.1S396.6,283.19,404.86,249.62Z" transform="translate(-108.5 -18.87)"/><path d="M432.09,261.59a57.46,57.46,0,0,0-12.84-7.78C402.58,284.12,396,306.37,396,306.37S408.12,286.56,432.09,261.59Z" transform="translate(-108.5 -18.87)"/><path d="M394.8,18.89a288.24,288.24,0,0,0-74.29,10,292.36,292.36,0,0,0-7.09,62.69,228.5,228.5,0,0,1,58.35-14A292.46,292.46,0,0,1,394.8,18.89Z" transform="translate(-108.5 -18.87)"/><path d="M343.36,283a57,57,0,0,0-4.25,14.43c33.64,8.31,56.89,8.91,56.89,8.91S373.71,299.77,343.36,283Z" transform="translate(-108.5 -18.87)" style="fill:#fff"/><path d="M338.75,312.5a57,57,0,0,0,3.54,14.62c33.28-9.64,53.71-20.74,53.71-20.74S373.39,311.8,338.75,312.5Z" transform="translate(-108.5 -18.87)" style="fill:#fff"/><path d="M339.11,297.46a58,58,0,0,0-.36,15c34.64-.69,57.25-6.13,57.25-6.13S372.75,305.77,339.11,297.46Z" transform="translate(-108.5 -18.87)"/><path d="M351.21,270.22A57.18,57.18,0,0,0,343.36,283C373.71,299.77,396,306.37,396,306.37S376.19,294.23,351.21,270.22Z" transform="translate(-108.5 -18.87)"/><path d="M342.28,327.11a57.12,57.12,0,0,0,7.22,13.19C379.14,322.38,396,306.37,396,306.37S375.57,317.47,342.28,327.11Z" transform="translate(-108.5 -18.87)"/><path d="M362.12,259.9a57.53,57.53,0,0,0-10.91,10.32c25,24,44.78,36.15,44.78,36.15S380,289.53,362.12,259.9Z" transform="translate(-108.5 -18.87)" style="fill:#fff"/><path d="M451.3,205.32a115.26,115.26,0,0,1,24.2,17.81,324.61,324.61,0,0,1,50-30.9,173.18,173.18,0,0,0-33.93-29.66A324.88,324.88,0,0,0,451.3,205.32Z" transform="translate(-108.5 -18.87)"/><path d="M251.43,485.31a292,292,0,0,1-57.92,25.25A288.12,288.12,0,0,0,253.23,556a292.12,292.12,0,0,0,49.38-39.35A229.7,229.7,0,0,1,251.43,485.31Z" transform="translate(-108.5 -18.87)" style="fill:#fff"/><path d="M478.58,521.17a292.47,292.47,0,0,1-7.09,62.69,285.71,285.71,0,0,0,69.2-28.94,292.46,292.46,0,0,0-9.38-62.49A229.27,229.27,0,0,1,478.58,521.17Z" transform="translate(-108.5 -18.87)" style="fill:#fff"/><path d="M181.36,389a291.93,291.93,0,0,1-62.84-7.14,285.77,285.77,0,0,0,29,69.29,291.92,291.92,0,0,0,62.56-9.39A229.55,229.55,0,0,1,181.36,389Z" transform="translate(-108.5 -18.87)" style="fill:#fff"/><path d="M108.51,307.47a292,292,0,0,0,58.83,23.14,232.43,232.43,0,0,1,1.51-60.05A292.17,292.17,0,0,1,118,232.92a288.47,288.47,0,0,0-9.46,73.45C108.5,306.74,108.51,307.1,108.51,307.47Z" transform="translate(-108.5 -18.87)" style="fill:#fff"/><path d="M397.2,593.85a292.55,292.55,0,0,0,23-58.67,232.45,232.45,0,0,1-60-1.51,292.39,292.39,0,0,1-37.49,50.78A288.55,288.55,0,0,0,396,593.87Z" transform="translate(-108.5 -18.87)" style="fill:#fff"/><path d="M302.61,516.69A292.12,292.12,0,0,1,253.23,556a285.8,285.8,0,0,0,69.49,28.42,292.39,292.39,0,0,0,37.49-50.78A228.34,228.34,0,0,1,302.61,516.69Z" transform="translate(-108.5 -18.87)"/><path d="M210.08,441.77a291.92,291.92,0,0,1-62.56,9.39,288.25,288.25,0,0,0,46,59.4,292,292,0,0,0,57.92-25.25A231.1,231.1,0,0,1,210.08,441.77Z" transform="translate(-108.5 -18.87)"/><path d="M394.8,18.89a292.46,292.46,0,0,0-23,58.67,232.25,232.25,0,0,1,60,1.51,292.27,292.27,0,0,1,37.49-50.78A288.55,288.55,0,0,0,396,18.87Z" transform="translate(-108.5 -18.87)" style="fill:#fff"/><path d="M313.42,91.57a292.36,292.36,0,0,1,7.09-62.69,285.63,285.63,0,0,0-69.2,28.94,292.48,292.48,0,0,0,9.38,62.49A229.11,229.11,0,0,1,313.42,91.57Z" transform="translate(-108.5 -18.87)" style="fill:#fff"/><path d="M489.39,96.05A292.1,292.1,0,0,1,538.77,56.7a285.64,285.64,0,0,0-69.49-28.42,292.27,292.27,0,0,0-37.49,50.78A228.15,228.15,0,0,1,489.39,96.05Z" transform="translate(-108.5 -18.87)"/><path d="M260.69,120.32a292.48,292.48,0,0,1-9.38-62.49,288.23,288.23,0,0,0-59.36,45.92,292.35,292.35,0,0,0,25.24,58A231.11,231.11,0,0,1,260.69,120.32Z" transform="translate(-108.5 -18.87)"/><path d="M217.18,161.71a292.35,292.35,0,0,1-25.24-58,288.23,288.23,0,0,0-45.51,59.67,292.19,292.19,0,0,0,39.39,49.51A230,230,0,0,1,217.18,161.71Z" transform="translate(-108.5 -18.87)" style="fill:#fff"/><path d="M185.83,212.92a292.19,292.19,0,0,1-39.39-49.51A285.76,285.76,0,0,0,118,232.92a292.17,292.17,0,0,0,50.89,37.64A228.66,228.66,0,0,1,185.83,212.92Z" transform="translate(-108.5 -18.87)"/><path d="M624.85,284.1q1.06,11,1.08,22.26a232.08,232.08,0,0,1-2.77,35.82A292.08,292.08,0,0,1,674,379.83a288.39,288.39,0,0,0,9.45-72.07A292,292,0,0,0,624.85,284.1Z" transform="translate(-108.5 -18.87)" style="fill:#fff"/><path d="M606.17,399.82a292.3,292.3,0,0,1,39.39,49.51A285.7,285.7,0,0,0,674,379.83a292.08,292.08,0,0,0-50.89-37.64A228.71,228.71,0,0,1,606.17,399.82Z" transform="translate(-108.5 -18.87)"/><path d="M574.82,451A292.48,292.48,0,0,1,600,509a288.07,288.07,0,0,0,45.51-59.67,292.3,292.3,0,0,0-39.39-49.51A230.06,230.06,0,0,1,574.82,451Z" transform="translate(-108.5 -18.87)" style="fill:#fff"/><path d="M451.3,205.32a324.88,324.88,0,0,1,40.29-42.76,171.75,171.75,0,0,0-40.45-19.86,324.74,324.74,0,0,0-27.85,51.71A114,114,0,0,1,451.3,205.32Z" transform="translate(-108.5 -18.87)" style="fill:#fff"/><path d="M540.57,127.43a291.87,291.87,0,0,1,57.92-25.25A288.18,288.18,0,0,0,538.77,56.7a292.1,292.1,0,0,0-49.38,39.35A229.7,229.7,0,0,1,540.57,127.43Z" transform="translate(-108.5 -18.87)" style="fill:#fff"/><path d="M531.31,492.43a292.46,292.46,0,0,1,9.38,62.49A288.2,288.2,0,0,0,600,509a292.48,292.48,0,0,0-25.23-58A231.24,231.24,0,0,1,531.31,492.43Z" transform="translate(-108.5 -18.87)"/><path d="M285.62,338.67A115.42,115.42,0,0,1,281.07,309a324.6,324.6,0,0,1-57.26-13.54c-.22,3.61-.35,7.25-.35,10.92a174.1,174.1,0,0,0,3.35,34A324.25,324.25,0,0,0,285.62,338.67Z" transform="translate(-108.5 -18.87)" style="fill:#fff"/><path d="M340.69,407.42a324.71,324.71,0,0,1-40.29,42.75A171.8,171.8,0,0,0,340.85,470a324.64,324.64,0,0,0,27.85-51.71A114.11,114.11,0,0,1,340.69,407.42Z" transform="translate(-108.5 -18.87)" style="fill:#fff"/><path d="M285.62,338.67a324.25,324.25,0,0,1-58.81,1.74,171.49,171.49,0,0,0,14.54,42.67,324.42,324.42,0,0,0,56.35-16.91A114.68,114.68,0,0,1,285.62,338.67Z" transform="translate(-108.5 -18.87)"/><path d="M340.69,407.42a115.3,115.3,0,0,1-24.2-17.8,324.6,324.6,0,0,1-50,30.9,173.25,173.25,0,0,0,33.93,29.66A324.71,324.71,0,0,0,340.69,407.42Z" transform="translate(-108.5 -18.87)"/><path d="M295.1,251.09a324.76,324.76,0,0,1-42.81-40.38,171.83,171.83,0,0,0-19.85,40.48,324.57,324.57,0,0,0,51.84,27.94A114.54,114.54,0,0,1,295.1,251.09Z" transform="translate(-108.5 -18.87)" style="fill:#fff"/><path d="M297.7,366.17a324.42,324.42,0,0,1-56.35,16.91,172.64,172.64,0,0,0,25.13,37.43,324.6,324.6,0,0,0,50-30.9A115.67,115.67,0,0,1,297.7,366.17Z" transform="translate(-108.5 -18.87)" style="fill:#fff"/><path d="M281,306.37a115.81,115.81,0,0,1,3.24-27.24,324.57,324.57,0,0,1-51.84-27.94,172.35,172.35,0,0,0-8.62,44.27A324.6,324.6,0,0,0,281.07,309C281.05,308.12,281,307.25,281,306.37Z" transform="translate(-108.5 -18.87)"/><path d="M396,191.13a115,115,0,0,1,27.3,3.28,324.74,324.74,0,0,1,27.85-51.71,172.05,172.05,0,0,0-44.24-8.63,325.14,325.14,0,0,0-13.5,57.1C394.27,191.15,395.13,191.13,396,191.13Z" transform="translate(-108.5 -18.87)"/><path d="M295.1,251.09a115.53,115.53,0,0,1,17.72-24.28,324.9,324.9,0,0,1-30.88-50.05,173.24,173.24,0,0,0-29.65,33.95A324.76,324.76,0,0,0,295.1,251.09Z" transform="translate(-108.5 -18.87)"/><path d="M363.7,195.75a114.74,114.74,0,0,1,29.71-4.58,325.14,325.14,0,0,1,13.5-57.1c-3.61-.23-7.24-.35-10.91-.35a173.7,173.7,0,0,0-34,3.36A324.92,324.92,0,0,0,363.7,195.75Z" transform="translate(-108.5 -18.87)" style="fill:#fff"/><path d="M336.2,207.92a325.16,325.16,0,0,1-16.86-56.3,172.65,172.65,0,0,0-37.41,25.14,324.9,324.9,0,0,0,30.88,50.05A115.47,115.47,0,0,1,336.2,207.92Z" transform="translate(-108.5 -18.87)" style="fill:#fff"/><path d="M363.7,195.75A324.92,324.92,0,0,1,362,137.07a171.36,171.36,0,0,0-42.64,14.55,325.16,325.16,0,0,0,16.86,56.3A114.22,114.22,0,0,1,363.7,195.75Z" transform="translate(-108.5 -18.87)"/><path d="M506.66,275a324.26,324.26,0,0,1,58.81-1.23A171.58,171.58,0,0,0,551.32,231a324.44,324.44,0,0,0-56.51,16.42A114.73,114.73,0,0,1,506.66,275Z" transform="translate(-108.5 -18.87)"/><path d="M396,421.6a115.07,115.07,0,0,1-27.3-3.27A324.64,324.64,0,0,1,340.85,470a172.09,172.09,0,0,0,44.24,8.63,325.13,325.13,0,0,0,13.5-57.1C397.73,421.59,396.86,421.6,396,421.6Z" transform="translate(-108.5 -18.87)"/><path d="M475.51,223.12a115.57,115.57,0,0,1,19.3,24.29A324.44,324.44,0,0,1,551.32,231a172.55,172.55,0,0,0-25.79-38.77A324.61,324.61,0,0,0,475.51,223.12Z" transform="translate(-108.5 -18.87)" style="fill:#fff"/><path d="M511,306.37a115.85,115.85,0,0,1-3.24,27.25,324.73,324.73,0,0,1,51.84,27.94,172.43,172.43,0,0,0,8.62-44.27,324.65,324.65,0,0,0-57.26-13.54C510.95,304.62,511,305.49,511,306.37Z" transform="translate(-108.5 -18.87)"/><path d="M506.66,275a115.65,115.65,0,0,1,4.27,28.73,324.65,324.65,0,0,1,57.26,13.54c.22-3.61.35-7.25.35-10.92a174.25,174.25,0,0,0-3.07-32.58A324.26,324.26,0,0,0,506.66,275Z" transform="translate(-108.5 -18.87)" style="fill:#fff"/><path d="M624.85,284.1a292,292,0,0,1,58.64,23.65c0-.46,0-.92,0-1.39a288.5,288.5,0,0,0-9.37-73.1,292,292,0,0,0-62.78-7.68A229,229,0,0,1,624.85,284.1Z" transform="translate(-108.5 -18.87)"/><path d="M611.35,225.59a292,292,0,0,1,62.78,7.68,285.78,285.78,0,0,0-29.65-71.7A291.89,291.89,0,0,0,581.92,171,229.54,229.54,0,0,1,611.35,225.59Z" transform="translate(-108.5 -18.87)" style="fill:#fff"/><path d="M496.9,361.65A324.77,324.77,0,0,1,539.71,402a171.78,171.78,0,0,0,19.85-40.48,324.73,324.73,0,0,0-51.84-27.94A114.6,114.6,0,0,1,496.9,361.65Z" transform="translate(-108.5 -18.87)" style="fill:#fff"/><path d="M428.3,417A324.92,324.92,0,0,1,430,475.67a171.24,171.24,0,0,0,42.64-14.55,325.14,325.14,0,0,0-16.86-56.3A114.37,114.37,0,0,1,428.3,417Z" transform="translate(-108.5 -18.87)"/><path d="M428.3,417a114.74,114.74,0,0,1-29.71,4.58,325.13,325.13,0,0,1-13.5,57.1c3.61.22,7.25.35,10.92.35a173.74,173.74,0,0,0,34-3.35A324.92,324.92,0,0,0,428.3,417Z" transform="translate(-108.5 -18.87)" style="fill:#fff"/><path d="M455.79,404.82a325.14,325.14,0,0,1,16.86,56.3A172.63,172.63,0,0,0,510.06,436a324.94,324.94,0,0,0-30.88-50.05A115.47,115.47,0,0,1,455.79,404.82Z" transform="translate(-108.5 -18.87)" style="fill:#fff"/><path d="M496.9,361.65a115.5,115.5,0,0,1-17.72,24.28A324.94,324.94,0,0,1,510.06,436,173.19,173.19,0,0,0,539.71,402,324.77,324.77,0,0,0,496.9,361.65Z" transform="translate(-108.5 -18.87)"/><path d="M581.92,171a291.89,291.89,0,0,1,62.56-9.39,288.3,288.3,0,0,0-46-59.4,291.87,291.87,0,0,0-57.92,25.25A231.1,231.1,0,0,1,581.92,171Z" transform="translate(-108.5 -18.87)"/></svg>